Coordinates
version=1
nRows=11
nColumns=63
inDegrees=yes

Units are S.I. units (second, meters, Newtons, ...)
If the header above contains a line with 'inDegrees', this indicates whether rotational values are in degrees (yes) or radians (no).

endheader
time	pelvis_tilt	pelvis_list	pelvis_rotation	pelvis_tx	pelvis_ty	pelvis_tz	hip_flexion_r	hip_adduction_r	hip_rotation_r	knee_angle_r	knee_angle_r_beta	ankle_angle_r	subtalar_angle_r	mtp_angle_r	hip_flexion_l	hip_adduction_l	hip_rotation_l	knee_angle_l	knee_angle_l_beta	ankle_angle_l	subtalar_angle_l	mtp_angle_l	L5_S1_Flex_Ext	L5_S1_Lat_Bending	L5_S1_axial_rotation	L4_L5_Flex_Ext	L4_L5_Lat_Bending	L4_L5_axial_rotation	L3_L4_Flex_Ext	L3_L4_Lat_Bending	L3_L4_axial_rotation	L2_L3_Flex_Ext	L2_L3_Lat_Bending	L2_L3_axial_rotation	L1_L2_Flex_Ext	L1_L2_Lat_Bending	L1_L2_axial_rotation	L1_T12_Flex_Ext	L1_T12_Lat_Bending	L1_T12_axial_rotation	Abs_r3	Abs_r2	Abs_r1	Abs_t1	Abs_t2	neck_flexion	neck_bending	neck_rotation	arm_flex_r	arm_add_r	arm_rot_r	elbow_flex_r	pro_sup_r	wrist_flex_r	wrist_dev_r	arm_flex_l	arm_add_l	arm_rot_l	elbow_flex_l	pro_sup_l	wrist_flex_l	wrist_dev_l
0.000000	0.741010	-4.063650	97.969881	-0.127134	0.775321	0.676301	8.213626	-4.186416	-9.987206	20.662561	0.360630	34.330635	-0.338290	0.000000	4.626548	1.477449	-1.445782	8.249494	0.143981	31.395965	14.049181	0.000000	0.202773	0.167476	0.235819	0.376569	0.222743	0.250558	0.333135	0.407200	0.250558	0.231749	0.407200	0.206342	0.188295	0.341516	0.191603	0.115864	0.259420	0.176864	1.448384	1.894519	1.311556	0.000000	0.000000	24.678443	-6.473313	-7.399164	-0.477744	-15.060364	36.365653	59.578853	52.870098	-2.518175	11.437665	20.212990	-8.633662	75.884281	50.135764	46.024260	-3.060662	13.573959
0.016667	0.671948	-3.865431	96.646193	-0.124656	0.776380	0.675727	7.720484	-3.963206	-9.286508	19.790084	0.345402	33.485080	0.099437	0.000000	4.583267	1.257108	-2.959955	9.019275	0.157416	31.387859	14.411501	0.000000	0.195179	0.138519	0.463000	0.362466	0.184230	0.491937	0.320659	0.336795	0.491937	0.223070	0.336795	0.405125	0.181243	0.282468	0.376187	0.111525	0.214566	0.347250	1.394141	1.566953	2.575066	0.000000	0.000000	24.595311	-6.821534	-8.484489	0.157498	-14.937212	37.920858	58.723609	58.294162	-3.824879	9.230365	20.448646	-8.884880	78.194176	49.589261	44.778897	-4.472603	8.515155
0.033333	0.620877	-3.708101	95.549741	-0.122631	0.777259	0.675164	7.327272	-3.773401	-8.675797	19.101272	0.333380	32.813671	0.444074	0.000000	4.551960	1.074131	-4.188400	9.657203	0.168550	31.374988	14.672016	0.000000	0.190321	0.115635	0.638567	0.353444	0.153795	0.678477	0.312678	0.281155	0.678477	0.217517	0.281155	0.558746	0.176732	0.235803	0.518835	0.108749	0.179119	0.478925	1.359441	1.308087	3.551516	0.000000	0.000000	24.541926	-7.042209	-9.256451	0.705332	-14.823024	39.272191	57.978098	62.715911	-5.042230	7.355490	20.564396	-9.104479	79.853466	49.150258	43.913697	-5.501821	4.657030
0.050000	0.586421	-3.587147	94.664319	-0.121024	0.777975	0.674614	7.023753	-3.614555	-8.153249	18.579248	0.324269	32.302066	0.707271	0.000000	4.530505	0.925202	-5.154001	10.174202	0.177573	31.358867	14.841657	0.000000	0.187899	0.098284	0.766962	0.348946	0.130717	0.814897	0.308699	0.238967	0.814897	0.214749	0.238967	0.671092	0.174483	0.200420	0.623157	0.107365	0.152241	0.575222	1.342141	1.111804	4.265614	0.000000	0.000000	24.516431	-7.149156	-9.745311	1.174243	-14.718383	40.440162	57.333055	66.217652	-6.171771	5.784988	20.573244	-9.293913	80.926140	48.807804	43.387004	-6.182677	1.888743
0.066667	0.567204	-3.498059	93.973721	-0.119801	0.778545	0.674077	6.799691	-3.484217	-7.717040	18.207135	0.317774	31.935923	0.900683	0.000000	4.516778	0.807000	-5.879644	10.581191	0.184677	31.341008	14.931358	0.000000	0.187612	0.085924	0.852629	0.348414	0.114279	0.905919	0.308228	0.208915	0.905919	0.214422	0.208915	0.746051	0.174217	0.175216	0.692761	0.107202	0.133096	0.639472	1.340095	0.971988	4.742069	0.000000	0.000000	24.516970	-7.156194	-9.981330	1.572719	-14.623874	41.445279	56.779215	68.881694	-7.215048	4.490809	20.488190	-9.454635	81.476184	48.550948	43.157165	-6.549533	0.099452
0.083333	0.561849	-3.436324	93.461744	-0.118927	0.778983	0.673553	6.644850	-3.379941	-7.365347	17.968055	0.313602	31.700902	1.035959	0.000000	4.508656	0.716208	-6.388216	10.889095	0.190051	31.322923	14.952052	0.000000	0.189161	0.078015	0.900011	0.351291	0.103760	0.956262	0.310773	0.189686	0.956262	0.216192	0.189686	0.787509	0.175655	0.159088	0.731259	0.108087	0.120845	0.675008	1.351158	0.882521	5.005590	0.000000	0.000000	24.541688	-7.077143	-9.994769	1.909248	-14.540081	42.308052	56.307312	70.790344	-8.173603	3.444902	20.322239	-9.588101	81.567587	48.368740	43.182525	-6.636749	-0.821685
0.100000	0.568982	-3.397430	93.112181	-0.118366	0.779307	0.673042	6.548993	-3.299277	-7.096346	17.845132	0.311456	31.582661	1.124752	0.000000	4.504013	0.649507	-6.702600	11.108834	0.193886	31.306126	14.914673	0.000000	0.192245	0.074016	0.913549	0.357018	0.098442	0.970646	0.315839	0.179963	0.970646	0.219717	0.179963	0.799356	0.178519	0.150934	0.742259	0.109849	0.114651	0.685162	1.373186	0.837287	5.080887	0.000000	0.000000	24.588727	-6.925819	-9.815887	2.192315	-14.467589	43.048991	55.908083	72.025911	-9.048981	2.619216	20.088392	-9.695765	81.264338	48.250229	43.421428	-6.478687	-0.985509
0.116667	0.587226	-3.376865	92.908827	-0.118084	0.779533	0.672545	6.501884	-3.239777	-6.908213	17.821489	0.311044	31.566859	1.178714	0.000000	4.500728	0.603579	-6.845683	11.251331	0.196373	31.292130	14.830153	0.000000	0.196564	0.073387	0.897687	0.365038	0.097605	0.953793	0.322934	0.178433	0.953793	0.224653	0.178433	0.785476	0.182529	0.149651	0.729371	0.112316	0.113677	0.673266	1.404034	0.830170	4.992668	0.000000	0.000000	24.656233	-6.716043	-9.474945	2.430408	-14.406981	43.688603	55.572261	72.670701	-9.842726	1.985700	19.799652	-9.779081	80.630423	48.184465	43.832222	-6.109708	-0.502862
0.133333	0.615204	-3.370117	92.835478	-0.118046	0.779678	0.672063	6.493287	-3.198992	-6.799126	17.880247	0.312069	31.639154	1.209497	0.000000	4.496677	0.575106	-6.840351	11.327508	0.197702	31.282446	14.709426	0.000000	0.201817	0.075587	0.856868	0.374794	0.100530	0.910422	0.331565	0.183781	0.910422	0.230656	0.183781	0.749759	0.187407	0.154136	0.696205	0.115318	0.117084	0.642651	1.441558	0.855051	4.765642	0.000000	0.000000	24.742349	-6.461634	-9.002204	2.632013	-14.358842	44.247399	55.290581	72.807023	-10.556381	1.516304	19.469022	-9.839504	79.729832	48.160496	44.373251	-5.564172	0.515415
0.150000	0.651542	-3.372675	92.875928	-0.118218	0.779757	0.671594	6.512964	-3.174474	-6.767261	18.004530	0.314238	31.785207	1.228751	0.000000	4.489736	0.560769	-6.709489	11.348287	0.198065	31.278589	14.563426	0.000000	0.207704	0.080074	0.795533	0.385728	0.106499	0.845254	0.341237	0.194693	0.845254	0.237385	0.194693	0.696092	0.192874	0.163287	0.646371	0.118682	0.124035	0.596650	1.483611	0.905816	4.424517	0.000000	0.000000	24.845219	-6.176408	-8.427925	2.805618	-14.323756	44.745888	55.053779	72.517185	-11.191492	1.182975	19.109504	-9.878487	78.626552	48.167373	45.002862	-4.876442	1.958480
0.166667	0.694862	-3.380025	93.013972	-0.118563	0.779787	0.671141	6.550680	-3.163774	-6.810793	18.177461	0.317257	31.990675	1.248131	0.000000	4.477781	0.557250	-6.475982	11.324590	0.197651	31.282070	14.403084	0.000000	0.213926	0.086309	0.718126	0.397282	0.114791	0.763009	0.351459	0.209852	0.763009	0.244496	0.209852	0.628361	0.198651	0.176002	0.583478	0.122237	0.133693	0.538595	1.528050	0.976347	3.994004	0.000000	0.000000	24.962987	-5.874187	-7.782368	2.959710	-14.302308	45.204579	54.852590	71.883495	-11.749601	0.957664	18.734101	-9.897486	77.384572	48.194144	45.679398	-4.080877	3.715492
